<svg width="757" height="173" fill="none" xmlns="http://www.w3.org/2000/svg"><path d="M124.732 54.806l-21.026-32.835 2.138-5.649 45.259-9.533c2.138-.353 3.207.354 1.782 2.472l-24.589 45.192c-1.07 2.083-2.495 1.766-3.564.353z" fill="#FDB913"/><path d="M126.157 34.328V7.107a3.291 3.291 0 00-.708-2.668 3.343 3.343 0 00-1.116-.877 3.38 3.38 0 00-1.383-.339L92.302.045c-2.494-.353-2.85 1.413-2.85 3.178l3.563 32.482a2.766 2.766 0 00.825 2.008 2.82 2.82 0 002.026.817h.713l27.084-1.412c1.782.388 2.494-.671 2.494-2.79z" fill="#B41E8E"/><path d="M83.037 150.136c2.256 0 4.46.661 6.335 1.903a11.324 11.324 0 014.2 5.071 11.196 11.196 0 01.65 6.526 11.268 11.268 0 01-3.121 5.787 11.486 11.486 0 01-12.428 2.447 11.397 11.397 0 01-5.118-4.16 11.224 11.224 0 01-1.922-6.279 11.114 11.114 0 013.297-8.029 11.273 11.273 0 013.72-2.447 11.278 11.278 0 014.387-.819zm-28.153-1.415c17.818-5.647 37.062-11.298 54.881-16.946 2.494-.705 3.563-1.767 3.563-6.004l1.069-44.52 20.313-10.24a3.737 3.737 0 001.924-2.105 3.678 3.678 0 00-.142-2.837 3.73 3.73 0 00-2.126-1.907 3.784 3.784 0 00-2.863.141l-19.957 10.24a8.767 8.767 0 00-2.952 2.844 8.666 8.666 0 00-1.324 3.864l-.356 6.708-71.63 5.684a4.757 4.757 0 00-3.143 1.62 4.66 4.66 0 00-1.133 3.322c0 .709.356 1.062.356 1.767l16.75 44.838a5.585 5.585 0 002.687 3.079 5.665 5.665 0 004.083.452zm63.077-15.182c1.198 0 2.37.353 3.365 1.014a5.998 5.998 0 012.232 2.693 5.955 5.955 0 01-1.313 6.541 6.092 6.092 0 01-6.602 1.3 6.038 6.038 0 01-2.719-2.212 5.945 5.945 0 01-1.021-3.332 6.145 6.145 0 011.824-4.196 6.257 6.257 0 014.234-1.808z" fill="#50B848"/><path d="M65.932 49.863L60.942 71.4l-23.52 10.945c-1.781.707-1.781 2.472-.356 3.178l18.531 10.24-4.276 30.361c-.357 1.415 1.069 2.473 2.85.709l24.233-24.717 24.946 4.593c3.207.705 2.851-1.415 2.138-2.473l-11.76-23.303 18.175-28.598c1.069-1.766 0-3.178-1.782-2.472L80.186 61.867l-11.76-13.416c-1.069-1.412-2.138 0-2.494 1.412z" fill="#0072BC"/><path d="M177.83 1.14l-3.92 2.118-5.345-1.059c-1.426-.353-1.425 0-1.425 1.06l.712 3.848-4.632 3.884c-.713.706-.357 1.412.712 1.412l7.127-.353 3.564 3.883c.713.707 1.426.354 1.782-.353l2.138-4.942 7.84-2.472c1.069 0 1.069-1.06 0-1.06l-7.127-2.117V1.846c0-1.8-.713-1.412-1.426-.706z" fill="#50B848"/><path d="M126.157 34.328V12.085l-22.451 4.59c-1.782.353-1.782 2.471-1.069 3.53l11.404 17.654 9.265-.353c2.139 0 2.851-1.06 2.851-3.178z" fill="#6F2C91"/><path d="M340.689 100.363l8.197-36.72c-6.415-1.412-12.829-2.471-19.244-2.471-10.334 0-17.818 2.47-23.52 9.18-9.622 10.944-12.473 27.185-17.462 35.306-2.138 3.531-13.542 5.647-16.749 4.236 0 0 .713-4.589 1.782-8.12l1.781-7.062a91.968 91.968 0 002.139-13.769c0-16.24-13.899-19.418-24.946-19.418-8.196 0-16.036 1.765-23.52 4.942l2.494 12.358c5.702-2.472 11.76-3.884 17.819-3.884 8.196 0 10.691 3.178 10.691 7.767 0 .353 0 1.766-.357 2.825h-6.058c-11.404 0-21.738 2.118-28.509 8.12-4.633 4.237-7.127 9.888-6.771 16.241-.356 8.826 6.415 16.594 15.68 16.946h2.138c7.84-.352 14.968-4.236 19.244-10.589 1.069 7.768 7.484 10.942 15.324 10.589 10.334-.352 27.796-3.527 33.142-15.178 4.989-10.241 8.553-21.892 14.254-30.366 1.782-3.177 5.346-4.943 8.91-4.943h1.781l-5.701 25.068c-2.139 8.826-1.07 18.361 3.563 26.481l16.393-6.004c-3.564-6.709-4.277-14.477-2.138-21.535h-.357zm-83.746-1.767c-1.781 7.414-8.196 12.709-15.68 13.418-3.92 0-6.058-1.767-6.058-5.651 0-2.116.713-4.236 2.495-5.647 2.851-2.826 8.196-4.237 16.392-4.237h3.564l-.713 2.117zm234.847 1.767l8.194-37.426h-16.749L466.129 83.06c-2.849 3.178-5.702 6.356-7.838 9.887h-.713c-3.566-10.24-7.485-20.125-12.117-30.011h-13.9c-3.206 16.241-6.768 33.542-11.047 41.31-2.136 4.236-13.897 8.12-18.172 6.706.357-3.175 1.066-6.001 1.779-9.179l1.783-7.062a91.971 91.971 0 002.14-13.769c0-16.24-13.9-19.418-24.947-19.418-8.197 0-16.037 1.765-23.521 4.942l2.495 12.358c5.702-2.472 11.76-3.884 17.818-3.884 8.196 0 10.692 3.178 10.692 7.767 0 1.06 0 1.766-.356 2.825h-6.059c-11.404 0-21.739 2.118-28.51 8.12-4.632 4.237-7.127 9.888-6.77 16.241-.357 8.826 6.414 16.594 15.68 16.946h2.138c7.84-.352 14.967-4.236 19.244-10.589 1.781 13.768 28.507 12.357 39.202 5.295 7.481-4.942 10.334-11.299 13.183-20.125 1.07-3.53 2.139-7.415 2.853-10.946h.356c3.206 7.062 6.055 15.888 8.195 22.245h7.484L468.625 99.3c2.136-2.47 5.346-6.353 7.125-8.826h.357c-3.206 11.299-7.838 25.776-.357 37.427l17.106-6.356c-2.493-7.062-3.206-14.477-1.066-21.183zm-103.348-1.767c-1.782 7.414-8.196 12.709-15.68 13.418-3.92 0-6.415-1.767-6.415-5.651 0-2.116.713-4.236 2.495-5.647 2.851-2.826 8.196-4.237 16.393-4.237h3.563l-.356 2.117zm230.569-36.718c-9.268-2.119-17.462.706-24.947 10.945.356-4.59-.713-8.827-3.206-12.71l-14.966 5.648c1.779 3.884 2.492 8.12 1.779 12.005l-6.771 31.423c-3.919 2.116-15.68 3.178-17.106 1.411.713-4.59 2.496-10.942 3.922-16.24a91.836 91.836 0 002.136-13.77c0-16.24-13.896-19.419-24.943-19.419-8.198 0-16.036 1.766-23.521 4.944l2.496 12.357c5.702-2.471 11.76-3.884 17.815-3.884 8.198 0 10.695 3.178 10.695 7.768 0 .352 0 1.765-.357 2.824h-6.059c-11.403 0-21.737 2.118-28.152 8.12-4.633 4.237-7.129 9.885-6.772 16.242-.357 8.825 6.415 16.593 15.679 16.946h2.14c7.838-.353 14.966-4.237 19.241-10.59-.356 3.884 13.187 14.826 30.293 8.473l-7.128 32.129h17.819l7.128-31.776c3.919 1.411 8.194 2.116 12.47 2.116 20.672 0 35.281-15.535 35.994-38.128.357-11.653-3.562-24.01-14.609-26.481l-1.07-.353zm-79.47 37.07c-1.783 7.415-8.195 12.714-15.68 13.419-3.918 0-6.058-1.767-6.058-5.651 0-2.116.713-4.237 2.492-5.648 2.853-2.825 8.199-4.236 16.397-4.236h3.562l-.713 2.116zm76.617-8.825c-.356 11.651-7.481 21.891-19.598 21.891-2.853 0-5.345-.709-7.842-1.414l2.497-13.768c3.562-19.772 26.013-29.658 24.943-6.71zm19.959 34.954h17.819l5.345-23.303c1.066-6.357 3.562-12.004 7.125-17.3 2.852-4.237 7.128-7.062 12.473-7.415 3.21 0 4.632 1.766 4.632 4.944 0 2.118-.356 4.236-1.069 6.356l-8.195 36.718h17.819l5.345-23.303c1.07-6.357 3.563-12.357 7.482-17.3 2.852-4.237 7.128-7.062 12.473-7.415 2.853 0 4.632 1.766 4.632 4.944 0 2.118-.356 4.236-1.066 6.356l-5.345 24.008c-1.426 5.648-1.07 12.004 1.779 17.299l16.749-6c-1.426-3.884-1.779-8.121-.713-12.361l4.989-22.24a92.021 92.021 0 002.14-13.77c0-8.828-6.059-13.417-14.967-13.417-9.977 0-18.888 7.061-24.234 13.77h-.356c0-9.18-5.346-13.77-13.897-13.77-9.624 0-18.532 6.708-23.52 13.416h-.357c.713-4.943 0-9.886-1.783-14.476l-15.679 5.65c1.426 3.883 1.783 7.767 1.069 11.65l-10.69 46.959z" fill="#F15A22"/><path d="M211.328 35.398c-6.058 0-23.519 0-27.796 18.36l-16.036 71.319h20.669l13.898-63.905c1.069-4.59 2.495-8.827 9.978-8.474h29.222l3.208-17.3h-33.143z" fill="#F15A22"/></svg>