<svg width="531" height="63" fill="none" xmlns="http://www.w3.org/2000/svg"><path d="M27.924 45.528V21.764H17.472l-.156 3.952a74.552 74.552 0 01-.416 5.928c-.173 1.837-.433 3.519-.78 5.044-.312 1.525-.745 2.843-1.3 3.952-.52 1.075-1.161 1.907-1.924 2.496l-10.972-1.3c1.213.035 2.201-.364 2.964-1.196.797-.867 1.421-2.063 1.872-3.588.485-1.525.832-3.328 1.04-5.408.243-2.08.416-4.35.52-6.812L8.736 13.6h29.328v31.928h-10.14zM.832 57.332V41.836h42.172v15.496h-9.412V50H10.296v7.332H.832zm56.56-29.64h16.9v7.696h-16.9v-7.696zm.727 14.352h19.032V50H47.927V13.6h28.548v7.956H58.12v20.488zM107.353 13.6h10.296V50h-10.296V13.6zM93.313 50H83.017V13.6h10.296V50zm14.768-14.196H92.585v-8.528h15.496v8.528zm35.953-10.608c4.438 0 7.87.988 10.296 2.964 2.462 1.976 3.692 4.94 3.692 8.892 0 4.264-1.369 7.488-4.108 9.672-2.738 2.184-6.482 3.276-11.232 3.276H125.47V13.6h10.14v11.596h8.424zm-2.028 17.42c1.734 0 3.103-.468 4.108-1.404 1.04-.936 1.56-2.253 1.56-3.952 0-1.733-.52-2.947-1.56-3.64-1.005-.728-2.374-1.092-4.108-1.092h-6.396v10.088h6.396zM178.334 50V13.6h16.64c3.328 0 6.188.537 8.58 1.612 2.426 1.075 4.298 2.635 5.616 4.68 1.317 2.01 1.976 4.403 1.976 7.176 0 2.739-.659 5.113-1.976 7.124-1.318 2.01-3.19 3.57-5.616 4.68-2.392 1.075-5.252 1.612-8.58 1.612h-10.92l4.576-4.472V50h-10.296zm10.296-12.896l-4.576-4.732h10.296c2.149 0 3.744-.468 4.784-1.404 1.074-.936 1.612-2.236 1.612-3.9 0-1.699-.538-3.016-1.612-3.952-1.04-.936-2.635-1.404-4.784-1.404h-10.296l4.576-4.732v20.124zm45.576 13.624c-2.912 0-5.599-.468-8.06-1.404-2.461-.936-4.611-2.253-6.448-3.952a18.747 18.747 0 01-4.212-6.032c-1.005-2.288-1.508-4.801-1.508-7.54s.503-5.252 1.508-7.54a18.168 18.168 0 014.212-5.98c1.837-1.733 3.987-3.068 6.448-4.004 2.461-.936 5.148-1.404 8.06-1.404 2.947 0 5.633.468 8.06 1.404 2.461.936 4.593 2.27 6.396 4.004a18.168 18.168 0 014.212 5.98c1.04 2.288 1.56 4.801 1.56 7.54s-.52 5.27-1.56 7.592a18.168 18.168 0 01-4.212 5.98c-1.803 1.699-3.935 3.016-6.396 3.952-2.427.936-5.113 1.404-8.06 1.404zm0-8.528c1.387 0 2.669-.243 3.848-.728a8.81 8.81 0 003.12-2.08 9.668 9.668 0 002.08-3.328c.52-1.283.78-2.704.78-4.264 0-1.595-.26-3.016-.78-4.264-.485-1.283-1.179-2.375-2.08-3.276a8.496 8.496 0 00-3.12-2.132c-1.179-.485-2.461-.728-3.848-.728s-2.687.243-3.9.728a9.098 9.098 0 00-3.12 2.132c-.867.901-1.56 1.993-2.08 3.276-.485 1.248-.728 2.67-.728 4.264 0 1.56.243 2.981.728 4.264.52 1.283 1.213 2.392 2.08 3.328a9.461 9.461 0 003.12 2.08c1.213.485 2.513.728 3.9.728zm65.805 7.8l-8.788-17.316 8.632-4.888L311.867 50h-11.856zm-14.404-13.936v-8.32h11.752v8.32h-11.752zm14.82-3.172l-9.516-1.04 9.568-18.252h10.764l-10.816 19.292zM267.095 50h-11.908l12.064-22.204 8.684 4.888L267.095 50zm21.528 0h-10.088V13.6h10.088V50zm-7.072-13.936h-11.804v-8.32h11.804v8.32zm-14.872-3.172L255.811 13.6h10.816l9.412 18.252-9.36 1.04zm73.55 12.636V21.764h-10.452l-.156 3.952a74.883 74.883 0 01-.416 5.928c-.174 1.837-.434 3.519-.78 5.044-.312 1.525-.746 2.843-1.3 3.952-.52 1.075-1.162 1.907-1.924 2.496l-10.972-1.3c1.213.035 2.201-.364 2.964-1.196.797-.867 1.421-2.063 1.872-3.588.485-1.525.832-3.328 1.04-5.408.242-2.08.416-4.35.52-6.812l.416-11.232h29.328v31.928h-10.14zm-27.092 11.804V41.836h42.172v15.496h-9.412V50h-23.296v7.332h-9.464zm56.559-29.64h16.9v7.696h-16.9v-7.696zm.728 14.352h19.032V50h-29.224V13.6h28.548v7.956h-18.356v20.488zM419.658 13.6h10.296V50h-10.296V13.6zM405.618 50h-10.296V13.6h10.296V50zm14.768-14.196H404.89v-8.528h15.496v8.528zM437.775 50V13.6h10.14v21.372L462.943 13.6h9.672V50h-10.14V28.68L447.499 50h-9.724zm62.988 0V38.716l2.444 2.132h-9.204c-3.258 0-6.066-.537-8.424-1.612-2.357-1.075-4.177-2.617-5.46-4.628-1.248-2.01-1.872-4.403-1.872-7.176 0-2.877.659-5.339 1.976-7.384 1.352-2.08 3.242-3.675 5.668-4.784 2.462-1.11 5.339-1.664 8.632-1.664h16.38V50h-10.14zm-22.412 0l9.1-13.156h10.348L489.167 50h-10.816zm22.412-14.56V19.164l2.444 2.548h-8.476c-2.01 0-3.536.468-4.576 1.404-1.005.901-1.508 2.288-1.508 4.16 0 1.837.503 3.241 1.508 4.212 1.04.936 2.531 1.404 4.472 1.404h8.58l-2.444 2.548z" fill="url(#paint0_linear_201_104)"/><path d="M27.924 45.528V21.764H17.472l-.156 3.952a74.552 74.552 0 01-.416 5.928c-.173 1.837-.433 3.519-.78 5.044-.312 1.525-.745 2.843-1.3 3.952-.52 1.075-1.161 1.907-1.924 2.496l-10.972-1.3c1.213.035 2.201-.364 2.964-1.196.797-.867 1.421-2.063 1.872-3.588.485-1.525.832-3.328 1.04-5.408.243-2.08.416-4.35.52-6.812L8.736 13.6h29.328v31.928h-10.14zM.832 57.332V41.836h42.172v15.496h-9.412V50H10.296v7.332H.832zm56.56-29.64h16.9v7.696h-16.9v-7.696zm.727 14.352h19.032V50H47.927V13.6h28.548v7.956H58.12v20.488zM107.353 13.6h10.296V50h-10.296V13.6zM93.313 50H83.017V13.6h10.296V50zm14.768-14.196H92.585v-8.528h15.496v8.528zm35.953-10.608c4.438 0 7.87.988 10.296 2.964 2.462 1.976 3.692 4.94 3.692 8.892 0 4.264-1.369 7.488-4.108 9.672-2.738 2.184-6.482 3.276-11.232 3.276H125.47V13.6h10.14v11.596h8.424zm-2.028 17.42c1.734 0 3.103-.468 4.108-1.404 1.04-.936 1.56-2.253 1.56-3.952 0-1.733-.52-2.947-1.56-3.64-1.005-.728-2.374-1.092-4.108-1.092h-6.396v10.088h6.396zM178.334 50V13.6h16.64c3.328 0 6.188.537 8.58 1.612 2.426 1.075 4.298 2.635 5.616 4.68 1.317 2.01 1.976 4.403 1.976 7.176 0 2.739-.659 5.113-1.976 7.124-1.318 2.01-3.19 3.57-5.616 4.68-2.392 1.075-5.252 1.612-8.58 1.612h-10.92l4.576-4.472V50h-10.296zm10.296-12.896l-4.576-4.732h10.296c2.149 0 3.744-.468 4.784-1.404 1.074-.936 1.612-2.236 1.612-3.9 0-1.699-.538-3.016-1.612-3.952-1.04-.936-2.635-1.404-4.784-1.404h-10.296l4.576-4.732v20.124zm45.576 13.624c-2.912 0-5.599-.468-8.06-1.404-2.461-.936-4.611-2.253-6.448-3.952a18.747 18.747 0 01-4.212-6.032c-1.005-2.288-1.508-4.801-1.508-7.54s.503-5.252 1.508-7.54a18.168 18.168 0 014.212-5.98c1.837-1.733 3.987-3.068 6.448-4.004 2.461-.936 5.148-1.404 8.06-1.404 2.947 0 5.633.468 8.06 1.404 2.461.936 4.593 2.27 6.396 4.004a18.168 18.168 0 014.212 5.98c1.04 2.288 1.56 4.801 1.56 7.54s-.52 5.27-1.56 7.592a18.168 18.168 0 01-4.212 5.98c-1.803 1.699-3.935 3.016-6.396 3.952-2.427.936-5.113 1.404-8.06 1.404zm0-8.528c1.387 0 2.669-.243 3.848-.728a8.81 8.81 0 003.12-2.08 9.668 9.668 0 002.08-3.328c.52-1.283.78-2.704.78-4.264 0-1.595-.26-3.016-.78-4.264-.485-1.283-1.179-2.375-2.08-3.276a8.496 8.496 0 00-3.12-2.132c-1.179-.485-2.461-.728-3.848-.728s-2.687.243-3.9.728a9.098 9.098 0 00-3.12 2.132c-.867.901-1.56 1.993-2.08 3.276-.485 1.248-.728 2.67-.728 4.264 0 1.56.243 2.981.728 4.264.52 1.283 1.213 2.392 2.08 3.328a9.461 9.461 0 003.12 2.08c1.213.485 2.513.728 3.9.728zm65.805 7.8l-8.788-17.316 8.632-4.888L311.867 50h-11.856zm-14.404-13.936v-8.32h11.752v8.32h-11.752zm14.82-3.172l-9.516-1.04 9.568-18.252h10.764l-10.816 19.292zM267.095 50h-11.908l12.064-22.204 8.684 4.888L267.095 50zm21.528 0h-10.088V13.6h10.088V50zm-7.072-13.936h-11.804v-8.32h11.804v8.32zm-14.872-3.172L255.811 13.6h10.816l9.412 18.252-9.36 1.04zm73.55 12.636V21.764h-10.452l-.156 3.952a74.883 74.883 0 01-.416 5.928c-.174 1.837-.434 3.519-.78 5.044-.312 1.525-.746 2.843-1.3 3.952-.52 1.075-1.162 1.907-1.924 2.496l-10.972-1.3c1.213.035 2.201-.364 2.964-1.196.797-.867 1.421-2.063 1.872-3.588.485-1.525.832-3.328 1.04-5.408.242-2.08.416-4.35.52-6.812l.416-11.232h29.328v31.928h-10.14zm-27.092 11.804V41.836h42.172v15.496h-9.412V50h-23.296v7.332h-9.464zm56.559-29.64h16.9v7.696h-16.9v-7.696zm.728 14.352h19.032V50h-29.224V13.6h28.548v7.956h-18.356v20.488zM419.658 13.6h10.296V50h-10.296V13.6zM405.618 50h-10.296V13.6h10.296V50zm14.768-14.196H404.89v-8.528h15.496v8.528zM437.775 50V13.6h10.14v21.372L462.943 13.6h9.672V50h-10.14V28.68L447.499 50h-9.724zm62.988 0V38.716l2.444 2.132h-9.204c-3.258 0-6.066-.537-8.424-1.612-2.357-1.075-4.177-2.617-5.46-4.628-1.248-2.01-1.872-4.403-1.872-7.176 0-2.877.659-5.339 1.976-7.384 1.352-2.08 3.242-3.675 5.668-4.784 2.462-1.11 5.339-1.664 8.632-1.664h16.38V50h-10.14zm-22.412 0l9.1-13.156h10.348L489.167 50h-10.816zm22.412-14.56V19.164l2.444 2.548h-8.476c-2.01 0-3.536.468-4.576 1.404-1.005.901-1.508 2.288-1.508 4.16 0 1.837.503 3.241 1.508 4.212 1.04.936 2.531 1.404 4.472 1.404h8.58l-2.444 2.548z" fill="url(#paint1_linear_201_104)"/><defs><linearGradient id="paint0_linear_201_104" x1="297.95" y1="-13.754" x2="275.666" y2="94.29" gradientUnits="userSpaceOnUse"><stop stop-color="#543183"/><stop offset=".391" stop-color="#3F296F"/><stop offset=".49" stop-color="#7F4ACB"/><stop offset=".568" stop-color="#2B2058"/><stop offset="1" stop-color="#47296F"/></linearGradient><linearGradient id="paint1_linear_201_104" x1="297.95" y1="-13.754" x2="275.666" y2="94.29" gradientUnits="userSpaceOnUse"><stop stop-color="#543183"/><stop offset=".391" stop-color="#3F296F"/><stop offset=".49" stop-color="#985BEC"/><stop offset=".568" stop-color="#2B2058"/><stop offset="1" stop-color="#47296F"/></linearGradient></defs></svg>