<svg width="757" height="173" viewBox="0 0 757 173" fill="none" xmlns="http://www.w3.org/2000/svg">
<path d="M124.732 54.8064L103.706 21.9711L105.844 16.3222L151.103 6.78941C153.241 6.4363 154.31 7.14251 152.885 9.26078L128.296 54.4533C127.226 56.5363 125.801 56.2188 124.732 54.8064Z" fill="#FDB913"/>
<path d="M126.157 34.3284V7.10687C126.239 6.63802 126.218 6.15706 126.096 5.69666C125.974 5.23626 125.753 4.80746 125.449 4.43929C125.145 4.07075 124.764 3.77166 124.333 3.56185C123.902 3.35204 123.43 3.23666 122.95 3.22307L92.3025 0.0454789C89.8082 -0.307628 89.4516 1.4579 89.4516 3.22307L93.0154 35.7052C93.0106 36.0778 93.0812 36.4471 93.2227 36.7917C93.3642 37.1367 93.5738 37.4498 93.8396 37.7132C94.1054 37.9763 94.4215 38.1843 94.7697 38.3246C95.1175 38.465 95.4906 38.5348 95.8663 38.53H96.5788L123.663 37.1176C125.445 37.506 126.157 36.4467 126.157 34.3284Z" fill="#B41E8E"/>
<path d="M83.0372 150.136C85.2926 150.136 87.4973 150.797 89.3725 152.039C91.2478 153.281 92.7095 155.045 93.5727 157.11C94.4359 159.175 94.6616 161.446 94.2216 163.636C93.7815 165.829 92.6955 167.843 91.1008 169.423C89.506 171.003 87.4741 172.076 85.2617 172.513C83.0497 172.95 80.7568 172.726 78.6731 171.87C76.5894 171.014 74.8082 169.566 73.5553 167.71C72.3021 165.851 71.6334 163.669 71.6334 161.431C71.6143 159.943 71.8962 158.466 72.4624 157.088C73.0289 155.706 73.8682 154.453 74.9306 153.402C75.9934 152.348 77.2584 151.517 78.6507 150.955C80.0429 150.393 81.5343 150.114 83.0372 150.136ZM54.8843 148.721C72.7024 143.074 91.9463 137.423 109.765 131.775C112.259 131.07 113.328 130.008 113.328 125.771L114.397 81.2508L134.71 71.0118C135.155 70.8031 135.553 70.5099 135.883 70.1487C136.214 69.7871 136.469 69.3649 136.634 68.906C136.8 68.4471 136.872 67.9602 136.848 67.4734C136.823 66.9865 136.702 66.5092 136.492 66.069C136.281 65.6285 135.985 65.2335 135.621 64.9064C135.256 64.5791 134.829 64.3266 134.366 64.1624C133.903 63.9985 133.412 63.9269 132.92 63.9507C132.429 63.975 131.947 64.0948 131.503 64.3035L111.546 74.5425C110.349 75.2461 109.337 76.2209 108.594 77.3868C107.85 78.553 107.397 79.8773 107.27 81.2508L106.914 87.9591L35.2842 93.6426C34.0648 93.7601 32.9383 94.3407 32.141 95.263C31.3438 96.1816 30.9376 97.3757 31.0078 98.5846C31.0078 99.2937 31.3642 99.6465 31.3642 100.352L48.1133 145.19C48.5855 146.517 49.5451 147.615 50.8005 148.269C52.0558 148.927 53.5142 149.085 54.8843 148.721ZM117.961 133.539C119.159 133.539 120.331 133.892 121.326 134.553C122.323 135.211 123.099 136.148 123.558 137.246C124.016 138.341 124.137 139.55 123.903 140.715C123.669 141.876 123.092 142.945 122.245 143.787C121.397 144.624 120.318 145.198 119.143 145.429C117.967 145.661 116.749 145.543 115.643 145.087C114.536 144.632 113.589 143.864 112.924 142.875C112.258 141.891 111.903 140.73 111.903 139.543C111.947 137.963 112.6 136.464 113.727 135.347C114.853 134.23 116.368 133.583 117.961 133.539Z" fill="#50B848"/>
<path d="M65.9318 49.8632L60.9427 71.4005L37.4225 82.3453C35.6406 83.0515 35.6406 84.8167 37.0661 85.5229L55.5971 95.7626L51.3207 126.124C50.9643 127.539 52.3898 128.597 54.1716 126.833L78.4043 102.116L103.35 106.709C106.557 107.414 106.201 105.294 105.488 104.236L93.7282 80.9333L111.903 52.3346C112.972 50.5694 111.903 49.157 110.121 49.8632L80.1862 61.8674L68.4262 48.4511C67.3571 47.0387 66.288 48.4511 65.9318 49.8632Z" fill="#0072BC"/>
<path d="M177.83 1.14006L173.91 3.25833L168.565 2.19901C167.139 1.84627 167.14 2.19901 167.14 3.25833L167.852 7.10687L163.22 10.9907C162.507 11.6965 162.863 12.4027 163.932 12.4027L171.059 12.0496L174.623 15.9334C175.336 16.6396 176.049 16.2865 176.405 15.5803L178.543 10.6376L186.383 8.16618C187.452 8.16618 187.452 7.10687 186.383 7.10687L179.256 4.98859V1.84627C179.256 0.0454655 178.543 0.433847 177.83 1.14006Z" fill="#50B848"/>
<path d="M126.157 34.328V12.0849L103.706 16.6749C101.924 17.028 101.924 19.1463 102.637 20.2056L114.041 37.8587L123.306 37.5056C125.445 37.5056 126.157 36.4467 126.157 34.328Z" fill="#6F2C91"/>
<path d="M340.689 100.363L348.886 63.6429C342.471 62.2308 336.057 61.1715 329.642 61.1715C319.308 61.1715 311.824 63.6429 306.122 70.3512C296.5 81.2964 293.649 97.5374 288.66 105.658C286.522 109.189 275.118 111.305 271.911 109.894C271.911 109.894 272.624 105.305 273.693 101.774L275.474 94.7118C276.544 90.1225 277.256 85.5333 277.613 80.9432C277.613 64.7022 263.714 61.5246 252.667 61.5246C244.471 61.5246 236.631 63.2898 229.147 66.4674L231.641 78.825C237.343 76.3532 243.401 74.9412 249.46 74.9412C257.656 74.9412 260.151 78.1188 260.151 82.7084C260.151 83.0615 260.151 84.4739 259.794 85.5333H253.736C242.332 85.5333 231.998 87.6515 225.227 93.6536C220.594 97.8901 218.1 103.541 218.456 109.894C218.1 118.72 224.871 126.488 234.136 126.84H236.274C244.114 126.488 251.242 122.604 255.518 116.251C256.587 124.019 263.002 127.193 270.842 126.84C281.176 126.488 298.638 123.313 303.984 111.662C308.973 101.421 312.537 89.7698 318.238 81.2963C320.02 78.1188 323.584 76.3532 327.148 76.3532H328.929L323.228 101.421C321.089 110.247 322.158 119.782 326.791 127.902L343.184 121.898C339.62 115.189 338.907 107.421 341.046 100.363H340.689ZM256.943 98.5956C255.162 106.01 248.747 111.305 241.263 112.014C237.343 112.014 235.205 110.247 235.205 106.363C235.205 104.247 235.918 102.127 237.7 100.716C240.551 97.8902 245.896 96.4792 254.092 96.4792H257.656L256.943 98.5956ZM491.79 100.363L499.984 62.9367H483.235L466.129 83.0615C463.28 86.2391 460.427 89.417 458.291 92.9481H457.578C454.012 82.7084 450.093 72.8225 445.461 62.9367H431.561C428.355 79.1781 424.793 96.4792 420.514 104.247C418.378 108.483 406.617 112.367 402.342 110.953C402.699 107.778 403.408 104.952 404.121 101.774L405.904 94.7118C406.974 90.1225 407.687 85.5333 408.044 80.9432C408.044 64.7022 394.144 61.5246 383.097 61.5246C374.9 61.5246 367.06 63.2898 359.576 66.4674L362.071 78.825C367.773 76.3532 373.831 74.9412 379.889 74.9412C388.085 74.9412 390.581 78.1188 390.581 82.7084C390.581 83.7677 390.581 84.4739 390.225 85.5333H384.166C372.762 85.5333 362.427 87.6515 355.656 93.6536C351.024 97.8901 348.529 103.541 348.886 109.894C348.529 118.72 355.3 126.488 364.566 126.84H366.704C374.544 126.488 381.671 122.604 385.948 116.251C387.729 130.019 414.455 128.608 425.15 121.546C432.631 116.604 435.484 110.247 438.333 101.421C439.403 97.8901 440.472 94.0063 441.186 90.4753H441.542C444.748 97.5374 447.597 106.363 449.737 112.72H457.221L468.625 99.3011C470.761 96.8319 473.971 92.9481 475.75 90.4753H476.107C472.901 101.774 468.269 116.251 475.75 127.902L492.856 121.546C490.363 114.484 489.65 107.069 491.79 100.363ZM388.442 98.5956C386.66 106.01 380.246 111.305 372.762 112.014C368.842 112.014 366.347 110.247 366.347 106.363C366.347 104.247 367.06 102.127 368.842 100.716C371.693 97.8902 377.038 96.4792 385.235 96.4792H388.798L388.442 98.5956ZM619.011 61.8777C609.743 59.7591 601.549 62.5839 594.064 72.8225C594.42 68.2329 593.351 63.996 590.858 60.1122L575.892 65.7615C577.671 69.6449 578.384 73.8819 577.671 77.7657L570.9 109.189C566.981 111.305 555.22 112.367 553.794 110.6C554.507 106.01 556.29 99.6575 557.716 94.3591C558.786 89.7698 559.496 85.1802 559.852 80.5901C559.852 64.3491 545.956 61.1715 534.909 61.1715C526.711 61.1715 518.873 62.9367 511.388 66.1146L513.884 78.4719C519.586 76.0005 525.644 74.5881 531.699 74.5881C539.897 74.5881 542.394 77.7657 542.394 82.3557C542.394 82.7084 542.394 84.1208 542.037 85.1801H535.978C524.575 85.1801 514.241 87.2984 507.826 93.3009C503.193 97.5374 500.697 103.185 501.054 109.542C500.697 118.367 507.469 126.135 516.733 126.488H518.873C526.711 126.135 533.839 122.251 538.114 115.898C537.758 119.782 551.301 130.724 568.407 124.371L561.279 156.5H579.098L586.226 124.724C590.145 126.135 594.42 126.84 598.696 126.84C619.368 126.84 633.977 111.305 634.69 88.7116C635.047 77.0594 631.128 64.7022 620.081 62.2308L619.011 61.8777ZM539.541 98.9484C537.758 106.363 531.346 111.662 523.861 112.367C519.943 112.367 517.803 110.6 517.803 106.716C517.803 104.6 518.516 102.479 520.295 101.068C523.148 98.2429 528.494 96.8319 536.692 96.8319H540.254L539.541 98.9484ZM616.158 90.1225C615.802 101.774 608.677 112.014 596.56 112.014C593.707 112.014 591.215 111.305 588.718 110.6L591.215 96.8319C594.777 77.0595 617.228 67.1736 616.158 90.1225ZM636.117 125.077H653.936L659.281 101.774C660.347 95.4173 662.843 89.7698 666.406 84.4739C669.258 80.237 673.534 77.4125 678.879 77.0594C682.089 77.0594 683.511 78.825 683.511 82.0026C683.511 84.1208 683.155 86.2391 682.442 88.3589L674.247 125.077H692.066L697.411 101.774C698.481 95.4173 700.974 89.4171 704.893 84.4739C707.745 80.237 712.021 77.4125 717.366 77.0594C720.219 77.0594 721.998 78.825 721.998 82.0026C721.998 84.1208 721.642 86.2391 720.932 88.3589L715.587 112.367C714.161 118.015 714.517 124.371 717.366 129.666L734.115 123.666C732.689 119.782 732.336 115.545 733.402 111.305L738.391 89.0643C739.461 84.4739 740.174 79.8839 740.531 75.2943C740.531 66.4674 734.472 61.8777 725.564 61.8777C715.587 61.8777 706.676 68.9391 701.33 75.6474H700.974C700.974 66.4674 695.628 61.8777 687.077 61.8777C677.453 61.8777 668.545 68.586 663.557 75.2943H663.2C663.913 70.3512 663.2 65.4084 661.417 60.8184L645.738 66.4674C647.164 70.3512 647.521 74.235 646.807 78.1188L636.117 125.077Z" fill="#F15A22"/>
<path d="M211.328 35.3977C205.27 35.3977 187.809 35.3976 183.532 53.7573L167.496 125.077H188.165L202.063 61.1719C203.132 56.5818 204.558 52.3449 212.041 52.698H241.263L244.471 35.3977H211.328Z" fill="#F15A22"/>
</svg>
