<svg width="531" height="63" viewBox="0 0 531 63" fill="none" xmlns="http://www.w3.org/2000/svg">
<path d="M27.924 45.528V21.764H17.472L17.316 25.716C17.2467 27.8307 17.108 29.8067 16.9 31.644C16.7267 33.4813 16.4667 35.1627 16.12 36.688C15.808 38.2133 15.3747 39.5307 14.82 40.64C14.3 41.7147 13.6587 42.5467 12.896 43.136L1.924 41.836C3.13733 41.8707 4.12533 41.472 4.888 40.64C5.68533 39.7733 6.30933 38.5773 6.76 37.052C7.24533 35.5267 7.592 33.724 7.8 31.644C8.04267 29.564 8.216 27.2933 8.32 24.832L8.736 13.6H38.064V45.528H27.924ZM0.832 57.332V41.836H43.004V57.332H33.592V50H10.296V57.332H0.832ZM57.3913 27.692H74.2913V35.388H57.3913V27.692ZM58.1193 42.044H77.1513V50H47.9273V13.6H76.4753V21.556H58.1193V42.044ZM107.353 13.6H117.649V50H107.353V13.6ZM93.3132 50H83.0172V13.6H93.3132V50ZM108.081 35.804H92.5852V27.276H108.081V35.804ZM144.034 25.196C148.472 25.196 151.904 26.184 154.33 28.16C156.792 30.136 158.022 33.1 158.022 37.052C158.022 41.316 156.653 44.54 153.914 46.724C151.176 48.908 147.432 50 142.682 50H125.47V13.6H135.61V25.196H144.034ZM142.006 42.616C143.74 42.616 145.109 42.148 146.114 41.212C147.154 40.276 147.674 38.9587 147.674 37.26C147.674 35.5267 147.154 34.3133 146.114 33.62C145.109 32.892 143.74 32.528 142.006 32.528H135.61V42.616H142.006ZM178.334 50V13.6H194.974C198.302 13.6 201.162 14.1373 203.554 15.212C205.98 16.2867 207.852 17.8467 209.17 19.892C210.487 21.9027 211.146 24.2947 211.146 27.068C211.146 29.8067 210.487 32.1813 209.17 34.192C207.852 36.2027 205.98 37.7627 203.554 38.872C201.162 39.9467 198.302 40.484 194.974 40.484H184.054L188.63 36.012V50H178.334ZM188.63 37.104L184.054 32.372H194.35C196.499 32.372 198.094 31.904 199.134 30.968C200.208 30.032 200.746 28.732 200.746 27.068C200.746 25.3693 200.208 24.052 199.134 23.116C198.094 22.18 196.499 21.712 194.35 21.712H184.054L188.63 16.98V37.104ZM234.206 50.728C231.294 50.728 228.607 50.26 226.146 49.324C223.685 48.388 221.535 47.0707 219.698 45.372C217.895 43.6387 216.491 41.628 215.486 39.34C214.481 37.052 213.978 34.5387 213.978 31.8C213.978 29.0613 214.481 26.548 215.486 24.26C216.491 21.972 217.895 19.9787 219.698 18.28C221.535 16.5467 223.685 15.212 226.146 14.276C228.607 13.34 231.294 12.872 234.206 12.872C237.153 12.872 239.839 13.34 242.266 14.276C244.727 15.212 246.859 16.5467 248.662 18.28C250.465 19.9787 251.869 21.972 252.874 24.26C253.914 26.548 254.434 29.0613 254.434 31.8C254.434 34.5387 253.914 37.0693 252.874 39.392C251.869 41.68 250.465 43.6733 248.662 45.372C246.859 47.0707 244.727 48.388 242.266 49.324C239.839 50.26 237.153 50.728 234.206 50.728ZM234.206 42.2C235.593 42.2 236.875 41.9573 238.054 41.472C239.267 40.9867 240.307 40.2933 241.174 39.392C242.075 38.456 242.769 37.3467 243.254 36.064C243.774 34.7813 244.034 33.36 244.034 31.8C244.034 30.2053 243.774 28.784 243.254 27.536C242.769 26.2533 242.075 25.1613 241.174 24.26C240.307 23.324 239.267 22.6133 238.054 22.128C236.875 21.6427 235.593 21.4 234.206 21.4C232.819 21.4 231.519 21.6427 230.306 22.128C229.127 22.6133 228.087 23.324 227.186 24.26C226.319 25.1613 225.626 26.2533 225.106 27.536C224.621 28.784 224.378 30.2053 224.378 31.8C224.378 33.36 224.621 34.7813 225.106 36.064C225.626 37.3467 226.319 38.456 227.186 39.392C228.087 40.2933 229.127 40.9867 230.306 41.472C231.519 41.9573 232.819 42.2 234.206 42.2ZM300.011 50L291.223 32.684L299.855 27.796L311.867 50H300.011ZM285.607 36.064V27.744H297.359V36.064H285.607ZM300.427 32.892L290.911 31.852L300.479 13.6H311.243L300.427 32.892ZM267.095 50H255.187L267.251 27.796L275.935 32.684L267.095 50ZM288.623 50H278.535V13.6H288.623V50ZM281.551 36.064H269.747V27.744H281.551V36.064ZM266.679 32.892L255.811 13.6H266.627L276.039 31.852L266.679 32.892ZM340.229 45.528V21.764H329.777L329.621 25.716C329.551 27.8307 329.413 29.8067 329.205 31.644C329.031 33.4813 328.771 35.1627 328.425 36.688C328.113 38.2133 327.679 39.5307 327.125 40.64C326.605 41.7147 325.963 42.5467 325.201 43.136L314.229 41.836C315.442 41.8707 316.43 41.472 317.193 40.64C317.99 39.7733 318.614 38.5773 319.065 37.052C319.55 35.5267 319.897 33.724 320.105 31.644C320.347 29.564 320.521 27.2933 320.625 24.832L321.041 13.6H350.369V45.528H340.229ZM313.137 57.332V41.836H355.309V57.332H345.897V50H322.601V57.332H313.137ZM369.696 27.692H386.596V35.388H369.696V27.692ZM370.424 42.044H389.456V50H360.232V13.6H388.78V21.556H370.424V42.044ZM419.658 13.6H429.954V50H419.658V13.6ZM405.618 50H395.322V13.6H405.618V50ZM420.386 35.804H404.89V27.276H420.386V35.804ZM437.775 50V13.6H447.915V34.972L462.943 13.6H472.615V50H462.475V28.68L447.499 50H437.775ZM500.763 50V38.716L503.207 40.848H494.003C490.745 40.848 487.937 40.3107 485.579 39.236C483.222 38.1613 481.402 36.6187 480.119 34.608C478.871 32.5973 478.247 30.2053 478.247 27.432C478.247 24.5547 478.906 22.0933 480.223 20.048C481.575 17.968 483.465 16.3733 485.891 15.264C488.353 14.1547 491.23 13.6 494.523 13.6H510.903V50H500.763ZM478.351 50L487.451 36.844H497.799L489.167 50H478.351ZM500.763 35.44V19.164L503.207 21.712H494.731C492.721 21.712 491.195 22.18 490.155 23.116C489.15 24.0173 488.647 25.404 488.647 27.276C488.647 29.1133 489.15 30.5173 490.155 31.488C491.195 32.424 492.686 32.892 494.627 32.892H503.207L500.763 35.44Z" fill="url(#paint0_linear_201_104)"/>
<path d="M27.924 45.528V21.764H17.472L17.316 25.716C17.2467 27.8307 17.108 29.8067 16.9 31.644C16.7267 33.4813 16.4667 35.1627 16.12 36.688C15.808 38.2133 15.3747 39.5307 14.82 40.64C14.3 41.7147 13.6587 42.5467 12.896 43.136L1.924 41.836C3.13733 41.8707 4.12533 41.472 4.888 40.64C5.68533 39.7733 6.30933 38.5773 6.76 37.052C7.24533 35.5267 7.592 33.724 7.8 31.644C8.04267 29.564 8.216 27.2933 8.32 24.832L8.736 13.6H38.064V45.528H27.924ZM0.832 57.332V41.836H43.004V57.332H33.592V50H10.296V57.332H0.832ZM57.3913 27.692H74.2913V35.388H57.3913V27.692ZM58.1193 42.044H77.1513V50H47.9273V13.6H76.4753V21.556H58.1193V42.044ZM107.353 13.6H117.649V50H107.353V13.6ZM93.3132 50H83.0172V13.6H93.3132V50ZM108.081 35.804H92.5852V27.276H108.081V35.804ZM144.034 25.196C148.472 25.196 151.904 26.184 154.33 28.16C156.792 30.136 158.022 33.1 158.022 37.052C158.022 41.316 156.653 44.54 153.914 46.724C151.176 48.908 147.432 50 142.682 50H125.47V13.6H135.61V25.196H144.034ZM142.006 42.616C143.74 42.616 145.109 42.148 146.114 41.212C147.154 40.276 147.674 38.9587 147.674 37.26C147.674 35.5267 147.154 34.3133 146.114 33.62C145.109 32.892 143.74 32.528 142.006 32.528H135.61V42.616H142.006ZM178.334 50V13.6H194.974C198.302 13.6 201.162 14.1373 203.554 15.212C205.98 16.2867 207.852 17.8467 209.17 19.892C210.487 21.9027 211.146 24.2947 211.146 27.068C211.146 29.8067 210.487 32.1813 209.17 34.192C207.852 36.2027 205.98 37.7627 203.554 38.872C201.162 39.9467 198.302 40.484 194.974 40.484H184.054L188.63 36.012V50H178.334ZM188.63 37.104L184.054 32.372H194.35C196.499 32.372 198.094 31.904 199.134 30.968C200.208 30.032 200.746 28.732 200.746 27.068C200.746 25.3693 200.208 24.052 199.134 23.116C198.094 22.18 196.499 21.712 194.35 21.712H184.054L188.63 16.98V37.104ZM234.206 50.728C231.294 50.728 228.607 50.26 226.146 49.324C223.685 48.388 221.535 47.0707 219.698 45.372C217.895 43.6387 216.491 41.628 215.486 39.34C214.481 37.052 213.978 34.5387 213.978 31.8C213.978 29.0613 214.481 26.548 215.486 24.26C216.491 21.972 217.895 19.9787 219.698 18.28C221.535 16.5467 223.685 15.212 226.146 14.276C228.607 13.34 231.294 12.872 234.206 12.872C237.153 12.872 239.839 13.34 242.266 14.276C244.727 15.212 246.859 16.5467 248.662 18.28C250.465 19.9787 251.869 21.972 252.874 24.26C253.914 26.548 254.434 29.0613 254.434 31.8C254.434 34.5387 253.914 37.0693 252.874 39.392C251.869 41.68 250.465 43.6733 248.662 45.372C246.859 47.0707 244.727 48.388 242.266 49.324C239.839 50.26 237.153 50.728 234.206 50.728ZM234.206 42.2C235.593 42.2 236.875 41.9573 238.054 41.472C239.267 40.9867 240.307 40.2933 241.174 39.392C242.075 38.456 242.769 37.3467 243.254 36.064C243.774 34.7813 244.034 33.36 244.034 31.8C244.034 30.2053 243.774 28.784 243.254 27.536C242.769 26.2533 242.075 25.1613 241.174 24.26C240.307 23.324 239.267 22.6133 238.054 22.128C236.875 21.6427 235.593 21.4 234.206 21.4C232.819 21.4 231.519 21.6427 230.306 22.128C229.127 22.6133 228.087 23.324 227.186 24.26C226.319 25.1613 225.626 26.2533 225.106 27.536C224.621 28.784 224.378 30.2053 224.378 31.8C224.378 33.36 224.621 34.7813 225.106 36.064C225.626 37.3467 226.319 38.456 227.186 39.392C228.087 40.2933 229.127 40.9867 230.306 41.472C231.519 41.9573 232.819 42.2 234.206 42.2ZM300.011 50L291.223 32.684L299.855 27.796L311.867 50H300.011ZM285.607 36.064V27.744H297.359V36.064H285.607ZM300.427 32.892L290.911 31.852L300.479 13.6H311.243L300.427 32.892ZM267.095 50H255.187L267.251 27.796L275.935 32.684L267.095 50ZM288.623 50H278.535V13.6H288.623V50ZM281.551 36.064H269.747V27.744H281.551V36.064ZM266.679 32.892L255.811 13.6H266.627L276.039 31.852L266.679 32.892ZM340.229 45.528V21.764H329.777L329.621 25.716C329.551 27.8307 329.413 29.8067 329.205 31.644C329.031 33.4813 328.771 35.1627 328.425 36.688C328.113 38.2133 327.679 39.5307 327.125 40.64C326.605 41.7147 325.963 42.5467 325.201 43.136L314.229 41.836C315.442 41.8707 316.43 41.472 317.193 40.64C317.99 39.7733 318.614 38.5773 319.065 37.052C319.55 35.5267 319.897 33.724 320.105 31.644C320.347 29.564 320.521 27.2933 320.625 24.832L321.041 13.6H350.369V45.528H340.229ZM313.137 57.332V41.836H355.309V57.332H345.897V50H322.601V57.332H313.137ZM369.696 27.692H386.596V35.388H369.696V27.692ZM370.424 42.044H389.456V50H360.232V13.6H388.78V21.556H370.424V42.044ZM419.658 13.6H429.954V50H419.658V13.6ZM405.618 50H395.322V13.6H405.618V50ZM420.386 35.804H404.89V27.276H420.386V35.804ZM437.775 50V13.6H447.915V34.972L462.943 13.6H472.615V50H462.475V28.68L447.499 50H437.775ZM500.763 50V38.716L503.207 40.848H494.003C490.745 40.848 487.937 40.3107 485.579 39.236C483.222 38.1613 481.402 36.6187 480.119 34.608C478.871 32.5973 478.247 30.2053 478.247 27.432C478.247 24.5547 478.906 22.0933 480.223 20.048C481.575 17.968 483.465 16.3733 485.891 15.264C488.353 14.1547 491.23 13.6 494.523 13.6H510.903V50H500.763ZM478.351 50L487.451 36.844H497.799L489.167 50H478.351ZM500.763 35.44V19.164L503.207 21.712H494.731C492.721 21.712 491.195 22.18 490.155 23.116C489.15 24.0173 488.647 25.404 488.647 27.276C488.647 29.1133 489.15 30.5173 490.155 31.488C491.195 32.424 492.686 32.892 494.627 32.892H503.207L500.763 35.44Z" fill="url(#paint1_linear_201_104)"/>
<defs>
<linearGradient id="paint0_linear_201_104" x1="297.95" y1="-13.7535" x2="275.666" y2="94.2897" gradientUnits="userSpaceOnUse">
<stop stop-color="#543183"/>
<stop offset="0.390625" stop-color="#3F296F"/>
<stop offset="0.489583" stop-color="#7F4ACB"/>
<stop offset="0.567708" stop-color="#2B2058"/>
<stop offset="1" stop-color="#47296F"/>
</linearGradient>
<linearGradient id="paint1_linear_201_104" x1="297.95" y1="-13.7535" x2="275.666" y2="94.2897" gradientUnits="userSpaceOnUse">
<stop stop-color="#543183"/>
<stop offset="0.390625" stop-color="#3F296F"/>
<stop offset="0.489583" stop-color="#985BEC"/>
<stop offset="0.567708" stop-color="#2B2058"/>
<stop offset="1" stop-color="#47296F"/>
</linearGradient>
</defs>
</svg>
